Coordinates
version=1
nRows=5
nColumns=40
inDegrees=yes

Units are S.I. units (second, meters, Newtons, ...)
Angles are in degrees.

endheader
time	pelvis_tilt	pelvis_list	pelvis_rotation	pelvis_tx	pelvis_ty	pelvis_tz	hip_flexion_r	hip_adduction_r	hip_rotation_r	knee_angle_r	knee_angle_r_beta	ankle_angle_r	subtalar_angle_r	mtp_angle_r	hip_flexion_l	hip_adduction_l	hip_rotation_l	knee_angle_l	knee_angle_l_beta	ankle_angle_l	subtalar_angle_l	mtp_angle_l	lumbar_extension	lumbar_bending	lumbar_rotation	arm_flex_r	arm_add_r	arm_rot_r	elbow_flex_r	pro_sup_r	wrist_flex_r	wrist_dev_r	arm_flex_l	arm_add_l	arm_rot_l	elbow_flex_l	pro_sup_l	wrist_flex_l	wrist_dev_l
     28.10500000	     -4.93787182	     -4.95454208	      7.25581735	      0.75207544	      0.91569598	      0.48366647	     10.46918468	      6.14024632	    -10.78885197	     23.01645669	     23.01645669	     18.80529361	     -9.11476315	      0.68104199	     35.31907852	     -8.26938030	      5.71247682	     26.17571148	     26.17571148	     -0.58846736	    -10.45670369	      8.83791027	    -12.29492741	      3.73700109	      2.99513611	     65.66875274	    -18.59138154	     11.37352021	     78.22870817	     44.43126225	      0.00000000	      0.00000000	    -26.48979253	    -11.08943666	     20.45173797	     38.24902587	     43.63563285	      0.00000000	      0.00000000
     28.12521429	     -5.22784364	     -5.07435147	      7.64958442	      0.75279592	      0.91528421	      0.48140623	     10.07698826	      6.15944129	    -11.11152874	     22.33848464	     22.33848464	     19.00286654	     -8.91496364	      0.69223393	     35.17661876	     -8.04128547	      5.55660586	     24.98569503	     24.98569503	     -0.89790742	     -9.45241897	      8.98691419	    -11.84293779	      3.83694083	      3.34072262	     67.52938078	    -18.44892920	     11.35401978	     78.95474377	     44.42042154	      0.00000000	      0.00000000	    -27.22183256	    -10.94921501	     20.58290399	     38.37206471	     43.62503933	      0.00000000	      0.00000000
     28.14542857	     -5.07597494	     -5.17439678	      8.03267036	      0.75431896	      0.91560071	      0.47900381	      8.82817229	      6.24197653	    -11.61919311	     21.06349359	     21.06349359	     19.13820015	     -8.05525759	      0.66322067	     34.41968662	     -7.97967967	      5.16603636	     24.02658496	     24.02658496	     -0.78301362	     -8.08183901	      8.48018301	    -11.88477685	      3.90799308	      3.30836223	     68.98463983	    -17.93259771	     12.00508212	     80.07072139	     44.38243721	      0.00000000	      0.00000000	    -28.16100187	    -10.80210080	     20.89124322	     39.13001501	     43.61836776	      0.00000000	      0.00000000
     28.16564286	     -5.15932357	     -5.34094601	      8.39378769	      0.75571606	      0.91530953	      0.47640668	      8.05035537	      6.34423867	    -12.00768762	     20.15636727	     20.15636727	     19.30480753	     -7.53226277	      0.59032375	     33.96674858	     -7.87454504	      5.09307372	     23.39683976	     23.39683976	     -0.60143258	     -7.38599875	      7.94009914	    -11.64277778	      4.02658985	      3.44663772	     70.25414523	    -17.64533560	     12.28589437	     80.88314724	     44.36443055	      0.00000000	      0.00000000	    -28.72553515	    -10.64250630	     21.15965546	     39.72717330	     43.61700580	      0.00000000	      0.00000000
     28.18585714	     -5.40312695	     -5.47035521	      8.68938538	      0.75711394	      0.91469540	      0.47368931	      7.57574861	      6.37447445	    -12.24170512	     19.51077174	     19.51077174	     19.48116748	     -7.27972416	      0.57371566	     33.71473727	     -7.68945271	      5.19597174	     23.06514172	     23.06514172	     -0.24969094	     -7.13948084	      7.59614538	    -11.23925514	      4.02337841	      3.63601695	     71.30159100	    -17.48758867	     12.24719542	     81.42770115	     44.35779614	      0.00000000	      0.00000000	    -29.08522322	    -10.40649633	     21.33380899	     39.92097063	     43.60962818	      0.00000000	      0.00000000
